<svg xmlns="http://www.w3.org/2000/svg" viewBox="0 0 95 30.1"><g transform="translate(28 45)"><path fill="#1d267a" d="M12.6-27.9c-.4-1.7-.7-3.5-1.1-5.2h-.1c-.6 1.7-1.2 3.4-1.9 5.2h3.1zm4.4 5h-3.3c-.1-.6-.3-1.2-.4-1.8 0-.2-.1-.3-.3-.3H8.9c-.2 0-.3.1-.3.2-.2.6-.4 1.1-.6 1.7 0 .1-.1.2-.2.2H4.3h-.1c.2-.5.4-1 .7-1.6 1.6-3.8 3.2-7.6 4.8-11.3 0-.8.5-1.2 1.3-1.2h2.8c.2 0 .3 0 .3.2.9 4.5 1.9 9 2.8 13.5 0 .2.1.3.1.4z"/><g transform="translate(0 .35)"><path fill="#1d267a" d="M-28-36.9c0-.1.1-.2.1-.4h6c1 0 1.6.5 1.8 1.5.5 2.6 1 5.2 1.5 7.7 0 .1 0 .2.1.3.1-.4.3-.6.4-.9l3.3-8.4c.1-.2.2-.2.3-.2H-10.9c-.1.1-.1.3-.1.4-1.9 4.5-3.8 9-5.6 13.5-.1.2-.2.2-.3.2h-3.4c-.2 0-.2 0-.3-.2-1-3.7-1.9-7.4-2.9-11.1-.1-.6-.4-.9-1-1.2-1.1-.5-2.2-.8-3.3-1.1-.1-.1-.1-.1-.2-.1"/></g><g transform="translate(21.67 .14)"><path fill="#1d267a" d="M-16.9-36.7c-.2 1-.4 2-.6 2.9-.2-.1-.5-.2-.7-.3-1-.3-2-.5-3.1-.3-.3.1-.6.2-.9.4-.6.4-.6 1.1 0 1.5.4.3.9.6 1.4.9.6.4 1.2.7 1.7 1.1 1.4 1 1.9 2.4 1.4 4.1-.4 1.6-1.5 2.5-3 3.1-1.3.5-2.8.6-4.2.5-.9-.1-1.8-.2-2.6-.5-.1 0-.3-.1-.4-.2l.6-3c.6.2 1.2.5 1.8.6.9.2 1.8.3 2.7.1.4-.1.7-.3 1-.5.5-.4.6-1.1.1-1.5-.4-.3-.9-.6-1.3-.9-.7-.4-1.4-.7-2-1.2-2-1.5-1.7-3.8-.6-5.2.8-1 1.8-1.6 3-1.9 1.8-.5 4.2-.4 5.7.3"/></g><path fill="#1d267a" d="M-12.4-22.9l.3-1.5c.9-4.1 1.8-8.2 2.6-12.3 0-.1 0-.2.2-.2h3.4c.1.4 0 .9-.1 1.3-.9 4.1-1.8 8.2-2.6 12.4-.1.2-.1.3-.4.3h-3.4z"/></g><g transform="translate(66)"><g transform="matrix(1 0 0 -1 2.39 31.33)"><path fill="#231f20" d="M-3.9 2.9c0 .6.4 1 1 1s1-.4 1-1-.4-1-1-1-1 .4-1 1zm2.6 0v1.6H-2v-.4c-.2.3-.6.5-1 .5-.9 0-1.6-.7-1.6-1.7s.7-1.7 1.6-1.7c.5 0 .8.2 1 .5v-.4h.7v1.6zm23.4 0c0 .6.4 1 1 1s1-.4 1-1-.4-1-1-1-1 .4-1 1zm2.6 0v2.9H24V4.1c-.2.3-.6.5-1 .5-.9 0-1.6-.7-1.6-1.7s.7-1.7 1.6-1.7c.5 0 .8.2 1 .5v-.4h.7v1.6zm-17.4 1c.4 0 .7-.3.8-.8H6.4c.1.5.4.8.9.8zm0 .7c-.9 0-1.6-.7-1.6-1.7s.7-1.7 1.6-1.7c.5 0 .9.1 1.3.4l-.3.6c-.3-.2-.6-.4-.9-.4-.4 0-.9.2-1 .8h2.4v.3c0 1-.6 1.7-1.5 1.7zm8.4-1.7c0 .6.4 1 1 1s1-.4 1-1-.4-1-1-1c-.7 0-1 .4-1 1zm2.5 0v1.6h-.7v-.4c-.2.3-.6.5-1 .5-.9 0-1.6-.7-1.6-1.7s.7-1.7 1.6-1.7c.5 0 .8.2 1 .5v-.4h.7v1.6zm-6.4 0c0-1 .7-1.7 1.7-1.7.5 0 .8.1 1.1.4l-.3.6c-.3-.2-.6-.3-.9-.3-.6 0-1 .4-1 1s.4 1 1 1c.3 0 .6-.1.8-.3l.3.6c-.3.3-.7.4-1.1.4-1 0-1.6-.7-1.6-1.7zm8.9 1.7c-.4 0-.7-.2-.8-.5v.4h-.7V1.3h.7v1.8c0 .5.2.8.7.8.1 0 .3 0 .4-.1l.2.7c-.2 0-.4.1-.5.1zM2.1 4.2c-.3.2-.8.4-1.3.4-.8 0-1.3-.4-1.3-1 0-.5.4-.8 1.1-.9h.3c.4-.1.6-.2.6-.3 0-.2-.3-.4-.7-.4a1 1 0 00-1.1.2l-.3-.5c.4-.3.9-.4 1.4-.4.9 0 1.5.4 1.5 1s-.4.9-1.1 1H.9c-.3 0-.5.1-.5.3s.2.4.6.4.8-.2 1-.3l.1.5zm9 .4c-.4 0-.7-.2-.8-.5v.4h-.8V1.3h.7v1.8c0 .5.2.8.7.8.1 0 .3 0 .4-.1l.2.7c-.1 0-.3.1-.4.1zm-6-.1H4v1h-.7v-1h-.6v-.7h.6V2.4c0-.7.3-1.2 1.1-1.2.3 0 .6.1.9.2l-.2.7c-.2-.2-.5-.2-.6-.2-.4 0-.5.2-.5.5v1.4h1.1v.7zM-5.2 1.3v2c0 .8-.5 1.3-1.3 1.3-.4 0-.8-.1-1.1-.6-.2.4-.6.6-1.1.6-.3 0-.7-.1-.9-.5v.4h-.7V1.3h.7v1.8c0 .6.3.8.8.8s.7-.3.7-.8V1.3h.7v1.8c0 .6.3.8.8.8s.7-.3.7-.8V1.3h.7z"/></g><path fill="#ff5f00" d="M14.8 21.4H4.3V2.6h10.5z"/><path fill="#eb001b" d="M5 13c0 3.8 1.8 7.2 4.6 9.4C7.5 24 4.9 25 2.1 25c-6.6 0-12-5.4-12-12s5.4-12 12-12c2.8 0 5.4 1 7.4 2.6C6.7 5.7 5 9.1 5 13" transform="matrix(1 0 0 -1 .03 24.98)"/><path fill="#f79e1b" d="M9.5 13c0-6.6-5.4-12-12-12-2.8 0-5.4 1-7.4 2.6 2.8 2.2 4.6 5.6 4.6 9.4s-1.8 7.2-4.6 9.4A11.97 11.97 0 009.5 13" transform="matrix(1 0 0 -1 19.44 24.98)"/></g></svg>
