<svg xmlns="http://www.w3.org/2000/svg" width="55" height="35" viewBox="0 0 55 55"><defs><radialGradient id="a" cx="17.54%" cy="17.47%" r="93.29%" fx="17.54%" fy="17.47%" gradientTransform="matrix(1 0 0 .9986 0 0)"><stop offset="0%" stop-color="#9DD5F6"/><stop offset="7.11%" stop-color="#98D3F5"/><stop offset="15.75%" stop-color="#89CEF3"/><stop offset="25.16%" stop-color="#70C6EF"/><stop offset="35.14%" stop-color="#4EBBEA"/><stop offset="45.46%" stop-color="#23ADE3"/><stop offset="50%" stop-color="#0DA6E0"/><stop offset="100%" stop-color="#2E77BC"/></radialGradient></defs><g fill="none" fill-rule="nonzero"><path fill="url(#a)" d="M54.6 0H0v55h54.6V36.85c.2-.31.32-.72.32-1.2 0-.57-.11-.92-.33-1.21"/><path fill="#FFF" d="M4.92 23.79l-1.05-2.57-1.04 2.57h2.09zm23.14-1.01c-.21.13-.46.13-.75.13h-1.86v-1.43h1.9c.27 0 .54.01.73.11.2.1.33.3.33.57-.04.29-.15.5-.35.62zm13.3 1l-1.06-2.56-1.06 2.57h2.13zm-24.78 2.8H15v-5.05l-2.23 5.06h-1.35L9.2 21.53v5.06H6.06l-.58-1.44h-3.2l-.6 1.44H.02l2.75-6.46h2.28l2.6 6.1v-6.1h2.5l2.01 4.38L14 20.13h2.56l.02 6.46zm6.25 0h-5.11v-6.45h5.13v1.35h-3.6v1.16h3.5v1.32h-3.5v1.29h3.58v1.34zm7.25-4.72c0 1.03-.68 1.56-1.09 1.71.33.14.62.35.76.55.21.3.25.6.25 1.18v1.27h-1.55v-.82c0-.39.04-.95-.25-1.26-.24-.24-.56-.27-1.13-.27h-1.64v2.35H23.9V20.1h3.52c.78 0 1.36.02 1.86.32s.8.71.8 1.43zm2.46 4.73h-1.57v-6.46h1.57v6.46zm18.16 0h-2.17l-2.9-4.84v4.84H42.5l-.6-1.44h-3.2l-.58 1.44h-1.8c-.75 0-1.68-.18-2.23-.72-.54-.55-.81-1.29-.81-2.47 0-.95.17-1.83.83-2.53.5-.5 1.28-.76 2.33-.76h1.49v1.38h-1.45c-.57 0-.88.08-1.19.4-.27.27-.44.77-.44 1.45 0 .7.13 1.19.43 1.52.23.25.65.33 1.06.33h.7l2.17-5.08h2.3l2.6 6.1v-6.1h2.34l2.7 4.5v-4.5h1.56v6.48h-.02zM0 27.85h2.61l.6-1.44h1.32l.58 1.44h5.15v-1.09l.47 1.1h2.67l.47-1.1v1.1h12.82v-2.34h.25c.17 0 .23.02.23.3v2.05h6.62v-.54c.55.29 1.38.54 2.46.54h2.8l.6-1.44h1.31l.58 1.44h5.38V26.5l.82 1.36h4.3v-9.02h-4.26v1.07l-.6-1.07H42.8v1.07l-.54-1.07h-5.91c-.99 0-1.86.14-2.56.53v-.53h-4.08v.53a2.6 2.6 0 0 0-1.75-.53H13.1l-.99 2.33-1.02-2.33h-4.7v1.07l-.51-1.07H1.86L0 23.13v4.72zM54.6 32.6h-2.8c-.27 0-.46.01-.62.1-.15.1-.23.26-.23.47 0 .26.14.41.33.5.16.05.33.07.6.07l.83.02c.84.02 1.4.17 1.75.52.06.06.1.1.13.16v-1.85zm0 4.25c-.37.54-1.11.81-2.1.81h-2.96v-1.38h2.94c.3 0 .5-.03.62-.15.12-.1.18-.25.18-.43 0-.2-.08-.33-.2-.43-.11-.1-.27-.13-.54-.13-1.43-.06-3.23.04-3.23-2 0-.94.6-1.93 2.2-1.93h3.06v-1.28h-2.84c-.85 0-1.47.21-1.92.52v-.52h-4.2c-.68 0-1.46.17-1.84.52v-.52h-7.5v.52c-.6-.42-1.6-.52-2.07-.52h-4.96v.52c-.46-.46-1.53-.52-2.17-.52h-5.53l-1.26 1.38-1.18-1.38h-8.24v9h8.12l1.3-1.4 1.24 1.4h5V36.8H27c.65.02 1.45-.02 2.13-.31v2.43h4.12v-2.35h.2c.25 0 .27.02.27.27v2.08h12.57c.79 0 1.62-.22 2.09-.59v.59h3.97a5.4 5.4 0 0 0 2.24-.41v-1.67zm-6.13-2.59c.3.31.47.7.47 1.36 0 1.38-.87 2.04-2.4 2.04h-2.99v-1.38h2.99c.29 0 .5-.03.62-.15.1-.1.17-.25.17-.43 0-.2-.08-.33-.2-.43-.1-.1-.26-.13-.53-.13-1.44-.06-3.24.04-3.24-2 0-.94.58-1.93 2.19-1.93h3.08v1.38h-2.81c-.27 0-.46.02-.62.12-.17.1-.23.25-.23.46 0 .26.13.41.33.5.15.05.33.07.6.07l.83.02c.83.02 1.4.15 1.74.5zm-13.84-.39c-.22.12-.47.14-.76.14h-1.86v-1.44h1.9c.27 0 .54 0 .74.12.19.1.3.31.3.58 0 .25-.11.49-.32.6zm.93.8c.34.14.62.35.75.55.21.3.25.6.25 1.18v1.28h-1.55v-.8c0-.38.04-.95-.25-1.26-.23-.23-.56-.29-1.12-.29h-1.65v2.35h-1.55v-6.45H34c.77 0 1.33.04 1.84.31.48.3.8.7.8 1.44a1.74 1.74 0 0 1-1.07 1.7zm1.93-3.44h5.12v1.34H39v1.17h3.5v1.32H39v1.28h3.6v1.34h-5.12v-6.45zM27.15 34.2h-1.97v-1.63h2c.55 0 .92.24.92.8 0 .54-.37.83-.95.83zm-3.52 2.88l-2.37-2.62 2.37-2.55v5.17zm-6.08-.76h-3.78v-1.28h3.37v-1.32h-3.37v-1.17h3.85l1.69 1.89-1.76 1.88zm12.2-2.97c0 1.79-1.34 2.16-2.68 2.16h-1.91v2.15h-2.99l-1.9-2.13-1.95 2.13h-6.08v-6.45h6.18l1.9 2.12 1.95-2.12h4.9c1.2.02 2.58.35 2.58 2.14z"/></g></svg>