<?xml version="1.0" encoding="UTF-8"?>
<svg width="119px" height="21px" viewBox="0 0 119 21" version="1.1" xmlns="http://www.w3.org/2000/svg" xmlns:xlink="http://www.w3.org/1999/xlink">
    <!-- Generator: Sketch 52.2 (67145) - http://www.bohemiancoding.com/sketch -->
    <title>paysafecard-color</title>
    <desc>Created with Sketch.</desc>
    <g id="UI-doc" stroke="none" stroke-width="1" fill="none" fill-rule="evenodd">
        <g id="Payment-logos" transform="translate(-82.000000, -816.000000)">
            <g id="paysafecard-color" transform="translate(82.000000, 816.000000)">
                <path d="M21.4265502,9.00253358 C21.4132011,8.5899473 21.2186687,8.37697766 20.8410455,8.3629919 L18.8238835,8.3629919 C18.3464526,8.39223544 18.0997893,8.65415522 18.0883463,9.14684386 L18.0883463,12.774939 C18.0997893,13.2835208 18.3725181,13.5428979 18.9027138,13.557519 L20.7514075,13.557519 C20.9433985,13.557519 21.1029653,13.4863182 21.2301117,13.3407359 C21.3629776,13.2313913 21.4265502,13.0908958 21.4265502,12.9167066 L21.4265502,9.00253358 Z M15.4983946,8.48759428 C15.511745,7.57977661 15.7139057,6.89001147 16.10615,6.41830276 C16.3114888,6.2205909 16.5683231,6.05530198 16.8811004,5.91862124 C17.2059587,5.77303893 17.5206421,5.70247349 17.8257912,5.70247349 L21.5282666,5.70247349 C23.1614504,5.71645925 23.9917098,6.6096558 24.0177739,8.38397054 L24.0177739,13.8448675 C24.0056968,14.4748736 23.7590335,15.0215991 23.282238,15.4786867 C22.8098927,15.959297 22.2460032,16.2040516 21.5892964,16.218674 L18.0883463,16.218674 L18.0883463,20.1557318 L15.4983946,20.1557318 L15.4983946,8.48759428 Z" id="path2491" fill="#008AC9" fill-rule="nonzero"/>
                <path d="M28.6929128,13.0305013 C28.6929128,13.1824398 28.7628416,13.3025921 28.899525,13.3928654 C29.0215846,13.5009393 29.1754292,13.557519 29.3699617,13.557519 L31.3591534,13.557519 C31.8086128,13.557519 32.0419231,13.3833298 32.0552735,13.0305013 L32.0552735,12.2879725 C32.0552735,11.8823778 31.8181471,11.6776744 31.3400809,11.6776744 L29.3699617,11.6776744 C29.1105846,11.6776744 28.9313099,11.7209037 28.831501,11.8022768 C28.7393202,11.898271 28.6929128,12.0883533 28.6929128,12.369981 L28.6929128,13.0305013 Z M32.0552735,8.93832566 C32.0686239,8.54036049 31.836583,8.35027687 31.3585168,8.3629919 L26.1423744,8.3629919 L26.1423744,5.70247349 L32.0152236,5.70247349 C33.7259658,5.730445 34.5943689,6.55689089 34.6236111,8.18880272 L34.6236111,13.7545942 C34.60899,14.4583451 34.3934789,15.0387643 33.9751705,15.500302 C33.5377908,15.9783683 32.9738988,16.218674 32.2828642,16.218674 L28.732964,16.218674 C27.0050567,16.2040516 26.1290253,15.4151142 26.1023245,13.8467749 L26.1023245,11.6992884 C26.1156749,10.0603837 26.9529271,9.22758159 28.6102677,9.19897341 L32.0552735,9.19897341 L32.0552735,8.93832566 Z" id="path2493" fill="#008AC9" fill-rule="nonzero"/>
                <path d="M41.8976033,17.494578 C42.1029421,17.4818643 42.2809461,17.4081194 42.4252564,17.2758875 C42.5638458,17.1525571 42.6337746,17.0107883 42.6337746,16.8499508 L42.6337746,16.218674 L39.3178213,16.218674 C38.8855271,16.218674 38.5396915,16.1633651 38.2815878,16.0533838 C38.0088591,15.9535749 37.737405,15.7673073 37.4640422,15.5028448 C37.2052992,15.2224891 37.0190317,14.9294184 36.9058723,14.6229986 C36.7882628,14.3426417 36.728505,13.9859997 36.728505,13.557519 L36.728505,5.70247349 L39.3178213,5.70247349 L39.3178213,12.7145446 C39.3178213,13.2765279 39.5473195,13.557519 40.0120366,13.557519 L41.840387,13.557519 C42.0578068,13.557519 42.2466183,13.4863182 42.4049131,13.3407359 C42.557487,13.2174055 42.6337746,13.0711878 42.6337746,12.8995414 L42.6337746,5.70247349 L45.2021122,5.70247349 L45.2021122,17.2905086 C45.1874911,18.1481067 44.9675299,18.8346925 44.5435006,19.3553513 C44.1131125,19.8760115 43.5244284,20.1423814 42.773636,20.1557318 L36.728505,20.1557318 L36.728505,17.494578 L41.8976033,17.494578" id="path2495" fill="#008AC9"/>
                <path d="M47.2358053,13.557519 L51.8505498,13.557519 C52.2726717,13.5428979 52.4919976,13.3737942 52.5053467,13.0495725 L52.5053467,12.8105401 C52.5053467,12.7412454 52.4843693,12.6643224 52.4436828,12.5816773 C52.3406957,12.3807886 52.2141846,12.2809784 52.0635168,12.2809784 L49.7755361,12.2809784 C49.0965786,12.267628 48.5174314,12.033681 48.0304636,11.5823143 C47.5377763,11.1652779 47.2853921,10.6522459 47.2707697,10.0502127 L47.2707697,8.06610774 C47.2974692,6.51811173 48.1385375,5.730445 49.7952427,5.70247349 L55.1474305,5.70247349 L55.1474305,8.3629919 L50.6127884,8.3629919 C50.0806852,8.3629919 49.8124079,8.52637344 49.8124079,8.85186578 L49.8124079,9.10933543 C49.8124079,9.44690744 50.0864047,9.61600982 50.632495,9.61600982 L52.9134854,9.61600982 C53.5212395,9.62999688 54.0393582,9.86267313 54.471017,10.3165813 C54.907126,10.7736702 55.1334434,11.3172164 55.1474305,11.9484932 L55.1474305,13.8893688 C55.1334434,14.4348224 54.8810606,14.9790052 54.3960002,15.521916 C54.1595104,15.7882859 53.9172973,15.9713754 53.6750854,16.0749991 C53.4246086,16.170358 53.0844952,16.218674 52.6502936,16.218674 L47.2358053,16.218674 L47.2358053,13.557519" id="path2497" fill="#008AC9"/>
                <path d="M59.5790842,13.0305013 C59.5790842,13.1824398 59.649013,13.3025921 59.7888745,13.3928654 C59.9096634,13.5009393 60.0641446,13.557519 60.256133,13.557519 L62.2491396,13.557519 C62.6985989,13.557519 62.9306385,13.3833298 62.9439889,13.0305013 L62.9439889,12.2879725 C62.9439889,11.8823778 62.7036844,11.6776744 62.2275243,11.6776744 L60.256133,11.6776744 C59.9973927,11.6776744 59.8187533,11.7209037 59.7195797,11.8022768 C59.627399,11.898271 59.5790842,12.0883533 59.5790842,12.369981 L59.5790842,13.0305013 Z M62.9439889,8.93832566 C62.9554319,8.54036049 62.723391,8.35027687 62.2446881,8.3629919 L57.0298178,8.3629919 L57.0298178,5.70247349 L62.9045731,5.70247349 C64.6134079,5.730445 65.4824477,6.55689089 65.5091485,8.18880272 L65.5091485,13.7545942 C65.4951614,14.4583451 65.2777429,15.0387643 64.8619786,15.500302 C64.427777,15.9783683 63.8632509,16.218674 63.1715796,16.218674 L59.6184987,16.218674 C57.8918647,16.2040516 57.0151967,15.4151142 56.9910386,13.8467749 L56.9910386,11.6992884 C57.0024829,10.0603837 57.8390985,9.22758159 59.4977111,9.19897341 L62.9439889,9.19897341 L62.9439889,8.93832566 Z" id="path2499" fill="#008AC9" fill-rule="nonzero"/>
                <path d="M67.6146764,4.1938933 C67.6305695,3.47552129 67.8950321,2.89891682 68.4137848,2.46662263 C68.9172811,2.02733426 69.5784368,1.80165089 70.3959824,1.78893716 L72.0406093,1.78893716 L72.0406093,4.35918222 L71.0444257,4.35918222 C70.4970647,4.37189595 70.2179798,4.63381573 70.2059001,5.13985477 L70.2059001,5.70310885 L72.0406093,5.70310885 L72.0406093,8.36617131 L70.2059001,8.36617131 L70.2059001,16.2199448 L67.6146764,16.2199448 L67.6146764,4.1938933" id="path2501" fill="#008AC9"/>
                <path d="M79.4061442,8.88873885 L79.4061442,8.82707237 C79.4061442,8.69039163 79.3508366,8.57405286 79.2395833,8.48759428 C79.118797,8.40367845 78.9713086,8.3629919 78.79394,8.3629919 L76.9910171,8.3629919 C76.7596129,8.3629919 76.573344,8.42783649 76.4290337,8.56070376 C76.2497591,8.68339875 76.1588504,8.8448729 76.1588504,9.04385548 L76.1588504,10.1118779 L79.4061442,8.88873885 Z M76.2001723,12.6497013 L76.2001723,12.8156256 C76.2001723,13.0285939 76.2554812,13.1976976 76.3680039,13.3203926 C76.449377,13.4774179 76.5587229,13.557519 76.7043039,13.557519 L82.0247067,13.557519 L82.0247067,16.218674 L76.3680039,16.218674 C75.8517939,16.218674 75.4493786,16.170358 75.1652095,16.0737271 C74.8543382,15.9713754 74.5752546,15.8041791 74.3317694,15.5715028 C74.0469636,15.2898764 73.8530678,15.0031633 73.7558016,14.7081852 C73.6489984,14.4004934 73.5962335,13.9923572 73.5962335,13.4837754 L73.5739829,8.15828847 C73.6025924,6.54926265 74.4430227,5.730445 76.0946424,5.70247349 L79.5860556,5.70247349 C81.1988962,5.730445 82.0158064,6.57786952 82.0418718,8.24919718 L82.0418718,10.3528177 L76.2001723,12.6497013 Z" id="path2503" fill="#008AC9" fill-rule="nonzero"/>
                <path d="M87.5243828,16.218674 C87.1321385,16.218674 86.7742245,16.1824363 86.4493675,16.116321 C86.1092528,16.0610134 85.7704101,15.9033527 85.4239378,15.6369828 C85.0685678,15.3273836 84.8225412,14.9802772 84.6877678,14.5969332 C84.5453649,14.2199467 84.4767056,13.792738 84.4767056,13.312129 L84.4767056,8.3464634 C84.4620845,7.94150536 84.502771,7.58613282 84.5974932,7.27780565 C84.6845884,6.97011383 84.8676779,6.66877953 85.1442201,6.37380144 C85.4595414,6.06420224 85.781219,5.85822678 86.1206971,5.75714579 C86.4474602,5.67513734 86.8155464,5.63381544 87.2281327,5.63381544 L91.1976147,5.63381544 L91.1976147,6.25619195 L87.3203134,6.25619195 C86.6356351,6.25619195 86.0978098,6.39668746 85.7042947,6.67831515 C85.3018782,6.98537161 85.0965407,7.51493202 85.0965407,8.26127555 L85.0965407,13.2301192 C85.0965407,13.5797696 85.1499409,13.9198844 85.2561087,14.2479195 C85.3648167,14.5702324 85.5459974,14.8531308 85.8060111,15.1004295 C86.0882742,15.3146698 86.3692665,15.4481725 86.6432633,15.5028448 C86.9287058,15.565782 87.2351256,15.5956609 87.5599813,15.5956609 L91.2599152,15.5956609 L91.2599152,16.218674 L87.5243828,16.218674" id="path2505" fill="#008AC9"/>
                <path d="M101.406757,9.77621325 L96.2026935,9.77621325 C95.5796816,9.79020031 95.0914431,9.98282537 94.7398853,10.3540897 C94.3762505,10.7310763 94.1963392,11.2479217 94.1963392,11.9046285 L94.1963392,13.4894963 C94.1963392,13.7965527 94.2281254,14.0775438 94.2942407,14.3305633 C94.359722,14.5969332 94.5231035,14.8346949 94.7812085,15.0387643 C95.2306679,15.4112994 95.728442,15.5956609 96.2726249,15.5956609 L99.4258319,15.5956609 C100.743694,15.5816751 101.406757,14.8874611 101.406757,13.5092042 L101.406757,9.77621325 Z M102.025321,13.3540863 C102.025321,13.7539588 101.994806,14.1048799 101.943311,14.4138438 C101.859396,14.7495071 101.687113,15.0730933 101.425829,15.3807852 C100.882283,15.9535749 100.208413,16.2326598 99.4042166,16.218674 L96.310132,16.218674 C95.5059368,16.218674 94.8543167,15.9783683 94.349551,15.500302 C93.833975,15.0279567 93.5726906,14.3712498 93.5726906,13.5289108 L93.5726906,11.9281499 C93.5987547,10.1220489 94.4983101,9.19706603 96.2707162,9.15510876 L101.425829,9.15510876 L101.425829,8.45453728 C101.425829,7.87729614 101.258634,7.37189376 100.926147,6.93705553 C100.715086,6.65479247 100.465245,6.46598218 100.181711,6.36871595 C99.8949979,6.29370038 99.5733203,6.25619195 99.214771,6.25619195 L93.5911278,6.25619195 L93.5911278,5.63381544 L98.9223356,5.63381544 C99.4099375,5.63381544 99.8504979,5.66814446 100.249734,5.73553179 C100.455074,5.77621834 100.641341,5.8563194 100.813623,5.97202151 C100.996079,6.08200277 101.166452,6.24284155 101.324112,6.45390381 C101.80218,7.07055816 102.035491,7.7819373 102.025321,8.58295312 L102.025321,13.3540863 Z" id="path2507" fill="#008AC9" fill-rule="nonzero"/>
                <path d="M107.844767,6.25619195 C106.401667,6.28289274 105.690287,7.07055816 105.716988,8.62046155 L105.716988,16.218674 L105.097154,16.218674 L105.097154,8.6230043 C105.067911,6.62936371 106.017052,5.63381544 107.944576,5.63381544 L108.633706,5.63381544 L108.633706,6.25619195 L107.844767,6.25619195" id="path2509" fill="#008AC9"/>
                <path d="M118.327909,6.25937005 L113.422638,6.25937005 C113.069173,6.25937005 112.752581,6.29878588 112.46714,6.37380144 C112.168348,6.44118877 111.879727,6.62237083 111.609544,6.91734892 C111.350804,7.18626158 111.188058,7.45263019 111.120034,7.7190001 C111.029125,7.98791276 110.987803,8.31022699 111.002424,8.6859415 L111.002424,13.5301828 C111.002424,14.3356488 111.235737,14.8836464 111.708718,15.1779878 C111.942029,15.3146698 112.198227,15.4170216 112.485577,15.4856796 C112.771653,15.5619672 113.090787,15.5994756 113.442346,15.5994756 L115.58729,15.5994756 C116.388305,15.5994756 117.04374,15.4151142 117.547237,15.0432131 C118.053274,14.6941994 118.310744,14.0921662 118.327909,13.233934 L118.327909,6.25937005 Z M118.947107,13.2765279 C118.892435,15.2816115 117.831406,16.2644461 115.764657,16.2231229 L113.465232,16.2231229 C112.979536,16.2231229 112.545335,16.1805303 112.161355,16.0997925 C111.765933,15.9974408 111.387675,15.7564997 111.023404,15.3807852 C110.749406,15.0432131 110.573309,14.7018277 110.502743,14.3521786 C110.408019,14.0031636 110.366697,13.6147353 110.38132,13.1907047 L110.38132,8.67004836 C110.408019,6.63381384 111.433447,5.62173577 113.460146,5.63699354 L118.327909,5.63699354 L118.327909,2.20470284 L118.947107,2.20470284 L118.947107,13.2765279 Z" id="path2511" fill="#008AC9" fill-rule="nonzero"/>
                <path d="M1.11188705,5.30260094 C1.31531976,5.21296426 1.51875247,5.14303418 1.72218519,5.09916823 C2.09599231,3.31404584 3.67704662,1.9752047 5.57214896,1.9752047 C7.46852333,1.9752047 9.050213,3.31595323 9.42338476,5.10044025 C10.0050747,5.21105687 10.4863204,5.44627586 10.8613995,5.79656161 C10.8766573,5.4539041 10.8626715,5.12396163 10.821985,4.81309171 C10.5823159,2.11633688 8.32103334,0 5.56388536,0 C2.725363,0 0.414493665,2.24983952 0.294341422,5.06229646 C0.277812921,5.30514369 0.272727429,5.55816321 0.281627691,5.82262573 C0.520024792,5.62173577 0.79211686,5.44118907 1.11188705,5.30260094" id="path2513" fill="#E3001B"/>
                <path d="M8.65351856,5.70247349 L2.32803319,5.70247349 C2.02351949,5.70247349 1.70819943,5.77303893 1.38334245,5.91862124 C1.06992848,6.05530198 0.813095492,6.2205909 0.607120033,6.41830276 C0.214875722,6.89001147 0.0139857549,7.57977661 0,8.48759428 L0,13.4322812 C0.0139857549,14.3420063 0.214875722,15.0311348 0.607120033,15.500302 C0.813095492,15.701192 1.06992848,15.8664809 1.38334245,16.0044337 C1.70819943,16.1468366 2.02351949,16.218674 2.32803319,16.218674 L8.65351856,16.218674 C10.2873378,16.2040516 11.1182338,15.3076757 11.1442979,13.535905 L11.1442979,8.38397054 C11.1182338,6.6096558 10.2873378,5.71645925 8.65351856,5.70247349" id="path2515" fill="#E3001B"/>
            </g>
        </g>
    </g>
</svg>