<svg xmlns="http://www.w3.org/2000/svg" viewBox="75.00 75.00 600.00 126.10"><path d="M275.1 175V92.9h-29.6V75h78.7v18h-29.6v82h-19.5zM322 175v-72.7h18.1v11.5c4.7-9.7 10.6-11.5 16.9-11.5h7.1v18.2h-6.2c-9.2 0-17.3 5.3-17.3 21.4v33H322zM374.4 148.7v-46.3H393v41.9c0 9.3 4.8 15.5 13.3 15.5 8.2 0 14.3-6.2 14.3-15.4v-42.1h18.6V175h-18v-9.2c-4.7 7.3-11.9 10.8-21 10.8-15.3.1-25.8-10.2-25.8-27.9zM449.1 154.5l16.4-3.7c.8 6.4 6 10.7 14.7 10.7 7.1 0 11.2-3 11.2-6.9 0-3.2-1.9-5.3-8.8-7l-11.8-2.7c-13.8-3.2-20.3-9.7-20.3-21.8 0-12.3 10.3-22.1 29.1-22.1 19.9 0 28.1 11.8 29.2 20.3l-16.4 3.6c-.8-4.5-4.2-9.3-13.2-9.3-5.9 0-10.3 2.7-10.3 6.6 0 3.4 2.6 5.3 6.6 6.3l16 3.8c12.5 3 18.5 10.3 18.5 21 0 11.7-9.5 23.2-29.7 23.2-22-.1-30.2-13.1-31.2-22zM548.3 175c-12.5 0-20.4-7.1-20.4-20.4v-36.1h-12.1v-16.2h12.1V85.8l18.6-5.3v21.9h14.8v16.2h-14.8v32.9c0 5.3 2.6 7.4 8 7.4h8.1V175h-14.3zM574.8 175V75h18.6v100h-18.6zM655 102.4h20l-30.7 98.7h-20l8.5-26h-10.1L602 102.4h20l15.8 57.2 17.2-57.2zM75 118.8h46.7V81.6l37.2 37.2-37.2 37.2v19h45.1v-56.2h41.5V75H75z"></path></svg>
